<svg id="Layer_1" data-name="Layer 1" xmlns="http://www.w3.org/2000/svg" viewBox="0 0 519.1678 130.5949"><defs><style>.cls-1{fill:#9d9fa2;}.cls-2{fill:#fff;}</style></defs><path class="cls-1" d="M74.4967,3.0582A13.1387,13.1387,0,1,0,87.631,16.195,13.1395,13.1395,0,0,0,74.4967,3.0582Zm0,32.2542A13.1387,13.1387,0,1,0,87.631,48.4529,13.1434,13.1434,0,0,0,74.4967,35.3124ZM15.9715,67.574A13.1385,13.1385,0,1,0,29.1083,80.71,13.1347,13.1347,0,0,0,15.9715,67.574Zm90.7673-38.2385a13.1387,13.1387,0,1,0-13.1343-13.14A13.14,13.14,0,0,0,106.7388,29.3355ZM42.2426,3.0582A13.1387,13.1387,0,1,0,55.3865,16.195,13.1393,13.1393,0,0,0,42.2426,3.0582ZM15.9715,35.3124A13.1387,13.1387,0,1,0,29.1083,48.4529,13.14,13.14,0,0,0,15.9715,35.3124Z" transform="translate(-2.8322 -3.0582)"/><path class="cls-2" d="M147.2858,80.55c-14.0268,0-20.0124,6.4281-20.0124,21.5045,0,13.1754,3.3279,21.9447,19.5746,21.9447,5.7146,0,10.6868-.5854,16.3581-3.468l.2274-.1211V109.0146h-5.18l-.2709,2.6408c-.6553,5.6107-1.0158,8.6966-9.4657,8.6966-11.6252,0-12.5853-8.653-12.5853-18.2977,0-9.4075.9552-17.8574,12.4984-17.8574,8.7183,0,9.0858,4.4256,9.41,8.3337l.23,1.601h5.364V84.8353l-.1211-.1208C159.2641,80.6613,148.5,80.55,147.2858,80.55ZM266.4621,118.901a11.0623,11.0623,0,0,1-4.0339.8368c-4.9674,0-5.3832-4.5661-5.3832-9.248V85.6h9.93v-4.174h-9.93V66.27l-.5855.2516-7.4583,3.1825v11.721H226.9091V66.27l-.5827.2516-7.4608,3.1825v11.721h-6.8538V85.6h6.8538v24.4549c0,6.5393,0,13.9446,9.8211,13.9446a26.896,26.896,0,0,0,10.5563-2.5879l.3507-.1741-1.3786-3.226-1.8863.89a11.0966,11.0966,0,0,1-4.0386.8368c-4.9675,0-5.3811-4.5661-5.3811-9.248V85.6h22.0921v24.4549c0,6.5393,0,13.9446,9.8236,13.9446a26.905,26.905,0,0,0,10.5538-2.5879l.3532-.1741-1.3784-3.226ZM108.0181,98.1945l-3.9274-1.1075c-2.8828-.9336-4.8949-3.12-4.8949-5.311,0-4.8124,1.1753-7.1487,7.8575-7.405,6.4521,0,6.6383,2.3459,7.05,7.4776l.1959,2.283.3843-.0047h5.074V82.9007l-.2395-.1161A26.735,26.735,0,0,0,108.3544,80.55c-7.5237,0-16.4983,2.3556-16.4983,13.5964,0,7.7922,6.6819,9.5673,11.5573,10.8634l.9554.2467c5.3568,1.4027,9.9831,2.6216,9.9831,7.5212,0,5.2335-4.9093,7.5745-9.7751,7.5745-7.5987,0-7.8163-3.7293-8.092-8.4549L96.2647,109l-.3869.0147H90.8886v12.3532l.2152.1208a21.78,21.78,0,0,0,10.4837,2.51c8.6314,0,20.1043-1.3979,20.1043-13.5092C121.6918,101.7883,114.4294,99.8777,108.0181,98.1945Zm81.36-17.6447c-13.8936,0-20.3653,6.8878-20.3653,21.6786,0,14.98,6.2805,21.6884,20.3631,21.7706,14.087-.0822,20.3677-6.7909,20.3677-21.7706C209.7434,87.4376,203.2717,80.55,189.3779,80.55Zm0,39.6281c-10.7473,0-11.6227-8.1307-11.6227-17.9495,0-9.77.8754-17.8574,11.6227-17.8574,10.745,0,11.618,8.0871,11.618,17.8574C200.9959,112.0472,200.1229,120.1779,189.3779,120.1779ZM463.0007,80.55c-14.0315,0-20.0195,6.4281-20.0195,21.5045,0,13.1754,3.3325,21.9447,19.5792,21.9447,5.7171,0,10.6893-.5854,16.3535-3.468l.232-.1211V109.0146h-5.18l-.2709,2.6359c-.6528,5.6156-1.0156,8.7015-9.4655,8.7015-11.6229,0-12.5855-8.653-12.5855-18.2977,0-9.4075.9579-17.8574,12.4984-17.8574,8.7158,0,9.0835,4.4256,9.4124,8.3337l.2273,1.6156,5.364-.0146V84.8353l-.1208-.1208C474.9766,80.6613,464.2147,80.55,463.0007,80.55Zm-120.862,0c-3.173,0-5.9977,1.5575-8.4548,4.4886V81.4255H307.29V68.0431c-.0047-.2467-.0047-.5005-.0047-.7569,0-2.9965.3142-6.6239,4.7109-6.9045a3.08,3.08,0,0,1,2.3266.7449c1.1221,1.0567,1.1511,2.9576,1.1657,3.676v3.5285h7.5744v-2.658h-.0049a8.395,8.395,0,0,0-.0386-.9626c-.745-6.9818-6.4185-7.8887-10.438-7.8887-8.3483,0-13.33,5.3157-13.33,14.214v10.39h-7.5551V85.6h7.5551v48.0537H307.29v-48.77h10.9748l.4015.0146c7.0712.2613,7.4147.5272,7.4147,5.8187v32.4693l8.0437-.0047V95.6408c0-3.7825.7254-10.1284,5.5574-10.1284,2.4911,0,3.1585,1.7994,3.2746,3.3035-.005,0,.0386.5805.0386.5805v4.7352h7.468V88.3709C350.4677,83.4616,347.3529,80.55,342.1387,80.55Zm166.8793,0c-8.116.3242-11.8067,2.8249-13.9929,5.2528V56.8218H479.0783v3.6471h.4158c7.1487,0,7.4,1.0205,7.4,5.8233v56.894h8.0437v-25.35c0-8.8223,3.1342-12.5852,10.4763-12.5852,2.8876,0,4.9432.6577,6.283,2.0168,2.1961,2.22,2.3217,6.1282,2.2637,11.0038v24.9142H522V96.0808C522,86.9829,521.0713,80.55,509.018,80.55Zm-134.139,0c-12.2757,0-19.3133,7.0668-19.3133,19.3958,0,11.8936,2.1813,24.0534,18.346,24.0534,10.3362,0,16.4934-4.7112,17.8091-13.62a12.8087,12.8087,0,0,0,.1766-1.364h-6.6025c-.1015.8464-.4425,2.6022-.4425,2.6022-.88,4.0145-1.8717,8.5611-9.7074,8.5611-10.6457,0-10.8295-9.5093-10.8344-17.3545h28.1019l.0193-.3967c.0386-.7739.0579-1.5235.0579-2.2587,0-6.7087-1.567-11.7485-4.6626-14.9942C384.9056,82.1026,380.5476,80.55,374.879,80.55ZM383.61,99.0023H364.3059c0-.2273-.005-.4547-.005-.6771,0-5.6445,1.0738-9.49,3.2746-11.739a8.59,8.59,0,0,1,6.4231-2.3893,8.7158,8.7158,0,0,1,6.6216,2.5054c2.022,2.1426,3.0425,5.6735,3.0425,10.5249C383.6627,97.798,383.6384,98.3978,383.61,99.0023ZM423.1939,80.55c-6.6554,0-9.4318,1.4995-14.3413,5.3593V81.4255H393.4281v3.4581l.4064.0146c7.0665.2613,7.4147.5272,7.4147,5.8187v32.4693h8.0388v-25.35c0-7.7678,1.7268-12.5852,10.3024-12.5852,8.5465,0,8.5465,5.746,8.5465,13.0253v24.9095h8.0437V96.0808C436.1806,86.9829,435.247,80.55,423.1939,80.55Z" transform="translate(-2.8322 -3.0582)"/></svg>